<svg xmlns="http://www.w3.org/2000/svg" viewBox="0 0 120 120">
  <rect x="14" y="10" width="92" height="100" rx="12" fill="#16a34a" stroke="#92400e" stroke-width="6"/>
  <rect x="17" y="30" width="86" height="14" fill="#fff" opacity=".08"/><rect x="17" y="58" width="86" height="14" fill="#fff" opacity=".08"/>
  <rect x="24" y="52" width="30" height="18" rx="7" fill="#38bdf8"/>
  <g transform="translate(78 64)">
    <g><animateTransform attributeName="transform" type="rotate" from="0" to="360" dur="3s" repeatCount="indefinite"/>
      <path d="M0 -2 L20 -5 L20 5 L0 2Z" fill="#fde047"/><path d="M0 -2 L20 -5 L20 5 L0 2Z" fill="#fff" transform="rotate(90)"/>
      <path d="M0 -2 L20 -5 L20 5 L0 2Z" fill="#fde047" transform="rotate(180)"/><path d="M0 -2 L20 -5 L20 5 L0 2Z" fill="#fff" transform="rotate(270)"/></g>
    <circle r="4" fill="#78350f"/>
  </g>
  <circle cx="60" cy="30" r="6" fill="#0b0b0b" stroke="#e5e7eb" stroke-width="1.5"/>
  <line x1="60" y1="30" x2="60" y2="6" stroke="#f8fafc" stroke-width="2"/>
  <path d="M60 6 Q68 8 74 10 L60 15Z" fill="#ef4444"><animate attributeName="d" values="M60 6 Q68 8 74 10 L60 15Z;M60 6 Q68 5 74 8 L60 15Z;M60 6 Q68 8 74 10 L60 15Z" dur="1s" repeatCount="indefinite"/></path>
  <line x1="44" y1="96" x2="56" y2="40" stroke="#fff" stroke-width="3" stroke-dasharray="2 5" stroke-linecap="round"/>
  <circle cx="44" cy="98" r="5" fill="#fff"><animate attributeName="cy" values="98;96;98" dur=".8s" repeatCount="indefinite"/></circle>
</svg>
