<svg xmlns="http://www.w3.org/2000/svg" viewBox="0 0 120 120">
  <defs><linearGradient id="sky" x1="0" y1="0" x2="0" y2="1"><stop offset="0" stop-color="#38bdf8"/><stop offset="1" stop-color="#bae6fd"/></linearGradient></defs>
  <rect width="120" height="120" rx="16" fill="url(#sky)"/>
  <g fill="#334155" opacity=".5"><rect x="4" y="80" width="14" height="30"/><rect x="96" y="70" width="18" height="40"/><rect x="84" y="88" width="12" height="22"/></g>
  <rect x="0" y="108" width="120" height="12" fill="#1e293b"/>
  <rect x="0" y="12" width="120" height="5" fill="#facc15"/>
  <g>
    <animateTransform attributeName="transform" type="translate" values="-18 0;18 0;-18 0" dur="2.4s" repeatCount="indefinite"/>
    <line x1="60" y1="17" x2="60" y2="28" stroke="#1f2937" stroke-width="1.5"/>
    <rect x="46" y="28" width="28" height="10" rx="2" fill="#a78bfa"/>
    <rect x="50" y="31" width="4" height="4" fill="#fef9c3"/><rect x="58" y="31" width="4" height="4" fill="#fef9c3"/><rect x="66" y="31" width="4" height="4" fill="#fef9c3"/>
  </g>
  <g transform="rotate(4 60 108)">
    <rect x="45" y="97" width="30" height="10" rx="2" fill="#f472b6"/>
    <rect x="47" y="87" width="30" height="10" rx="2" fill="#22d3ee"/>
    <rect x="50" y="77" width="30" height="10" rx="2" fill="#a3e635"/>
    <rect x="54" y="67" width="30" height="10" rx="2" fill="#fbbf24"/>
    <rect x="58" y="57" width="30" height="10" rx="2" fill="#fb923c"/>
  </g>
</svg>
