<svg xmlns="http://www.w3.org/2000/svg" viewBox="0 0 200 200">
  <defs>
    <radialGradient id="bg" cx=".5" cy=".42" r=".7"><stop offset="0" stop-color="#16103a"/><stop offset="1" stop-color="#030210"/></radialGradient>
    <linearGradient id="hull" x1="0" y1="0" x2="0" y2="1"><stop offset="0" stop-color="#f1f5f9"/><stop offset="1" stop-color="#64748b"/></linearGradient>
  </defs>
  <rect width="200" height="200" fill="url(#bg)"/>
  <g stroke="#22d3ee" fill="none" opacity=".5">
    <rect x="80" y="70" width="40" height="28"/><rect x="60" y="56" width="80" height="56" opacity=".7"/><rect x="30" y="35" width="140" height="98" opacity=".5"/><rect x="2" y="12" width="196" height="146" opacity=".35"/>
    <path d="M100 84 L0 200 M100 84 L200 200 M100 84 L0 0 M100 84 L200 0" opacity=".4"/>
  </g>
  <g stroke="#e2e8f0" stroke-width="1.5" opacity=".8"><path d="M20 30 l-8 -6 M180 40 l8 -6 M30 150 l-10 6 M170 160 l10 6 M60 20 l-4 -6 M150 18 l4 -6"/></g>
  <path d="M88 78 L100 70 L112 78 L100 84 Z" fill="#a3e635"/><path d="M120 64 L128 59 L136 64 L128 68 Z" fill="#a3e635"/>
  <path d="M60 60 l6 -4 l7 3 l-2 7 l-8 1 z" fill="#a8a29e"/>
  <circle cx="100" cy="98" r="3" fill="#f472b6"/>
  <path d="M100 118 L96 104 L100 104 L104 104 Z" stroke="#4ade80" stroke-width="2"/>
  <g transform="translate(100 150)">
    <path d="M0 -26 L10 -2 L42 10 L10 8 L0 14 L-10 8 L-42 10 L-10 -2 Z" fill="url(#hull)" stroke="#38bdf8" stroke-width="1.5"/>
    <path d="M0 -18 L5 -4 L-5 -4 Z" fill="#0ea5e9"/>
    <circle cx="-7" cy="12" r="3.5" fill="#38bdf8"/><circle cx="7" cy="12" r="3.5" fill="#38bdf8"/>
  </g>
  <g stroke="#4ade80" stroke-width="2.5"><path d="M86 140 L94 108 M114 140 L106 108"/></g>
</svg>
