<svg xmlns="http://www.w3.org/2000/svg" viewBox="0 0 200 200">
  <defs>
    <linearGradient id="wl" x1="0" x2="1"><stop offset="0" stop-color="#09090b"/><stop offset="1" stop-color="#3f3f46"/></linearGradient>
    <linearGradient id="wr" x1="1" x2="0"><stop offset="0" stop-color="#09090b"/><stop offset="1" stop-color="#3f3f46"/></linearGradient>
    <radialGradient id="glow" cx=".5" cy=".42" r=".45"><stop offset="0" stop-color="#fde68a" stop-opacity=".75"/><stop offset=".5" stop-color="#a78bfa" stop-opacity=".25"/><stop offset="1" stop-color="#000" stop-opacity="0"/></radialGradient>
  </defs>
  <rect width="200" height="200" fill="#0b0716"/>
  <polygon points="0,0 60,50 60,150 0,200" fill="url(#wl)"/>
  <polygon points="200,0 140,50 140,150 200,200" fill="url(#wr)"/>
  <polygon points="0,200 60,150 140,150 200,200" fill="#1c1917"/>
  <polygon points="0,0 60,50 140,50 200,0" fill="#050308"/>
  <rect x="60" y="50" width="80" height="100" fill="#27272a"/>
  <g stroke="#09090b" stroke-width="2"><path d="M60 75h80M60 100h80M60 125h80M85 50v25M115 50v25M72 75v25M100 75v25M128 75v25M85 100v25M115 100v25M72 125v25M128 125v25"/></g>
  <path d="M0 60l60 25M0 120l60 12M0 180l60-18M200 60l-60 25M200 120l-60 12" stroke="#18181b" stroke-width="2"/>
  <rect width="200" height="200" fill="url(#glow)"/>
  <g transform="translate(100 88)">
    <path d="M-30 12 l-3-30 14 16 19-26 19 26 14-16 -3 30z" fill="#fbbf24" stroke="#b45309" stroke-width="2"/>
    <rect x="-30" y="12" width="60" height="11" fill="#f59e0b" stroke="#b45309" stroke-width="2"/>
    <circle cx="0" cy="17" r="4" fill="#ef4444"/><circle cx="-16" cy="17" r="3" fill="#22d3ee"/><circle cx="16" cy="17" r="3" fill="#22d3ee"/>
  </g>
  <g transform="translate(42 142)" stroke="#e7e5e4" stroke-width="3" stroke-linecap="round" fill="none">
    <circle cx="0" cy="-26" r="7" fill="#e7e5e4"/><path d="M0-18v20M-9-12h18M-8-6h16M0-14l-12 10M0-14l11 9M0 2l-6 16M0 2l6 16"/>
    <path d="M11-5l8-22" stroke="#94a3b8" stroke-width="2"/>
  </g>
  <g transform="translate(160 150) rotate(-15)"><rect x="-8" y="-4" width="16" height="20" fill="#44403c"/><path d="M-8-4l5-9 5 9M0-4l5-9 5 9" fill="#d6d3d1"/></g>
  <g fill="#fde047"><circle cx="78" cy="160" r="4"/><circle cx="122" cy="166" r="4"/><circle cx="100" cy="174" r="4"/></g>
</svg>
